<?xml version="1.0" standalone="no"?>
<!DOCTYPE svg PUBLIC "-//W3C//DTD SVG 20010904//EN"
 "http://www.w3.org/TR/2001/REC-SVG-20010904/DTD/svg10.dtd">
<svg version="1.0" xmlns="http://www.w3.org/2000/svg"
 width="700.000000pt" height="700.000000pt" viewBox="0 0 700.000000 700.000000"
 preserveAspectRatio="xMidYMid meet">
<metadata>
Created by potrace 1.11, written by Peter Selinger 2001-2013
</metadata>
<g transform="translate(0.000000,700.000000) scale(0.100000,-0.100000)"
fill="#000000" stroke="none">
<path d="M3427 5685 c-23 -20 -32 -23 -48 -15 -10 6 -19 8 -19 4 0 -3 -6 -1
-13 5 -11 8 -16 6 -24 -12 -8 -18 -25 -26 -69 -36 -102 -22 -278 -71 -296 -81
-11 -6 -26 -6 -44 0 -14 6 -29 8 -34 5 -5 -3 -11 -1 -15 4 -3 5 -13 10 -23 10
-128 4 -234 16 -277 33 -82 33 -118 32 -155 -2 -17 -16 -29 -34 -25 -40 3 -5
2 -10 -3 -10 -6 0 -15 -13 -21 -30 -5 -16 -7 -30 -4 -30 3 0 1 -6 -5 -13 -24
-28 -37 -235 -17 -267 3 -5 -17 -20 -44 -34 -219 -110 -378 -310 -416 -526 -3
-19 -8 -44 -10 -55 -2 -11 -4 -23 -4 -27 -1 -3 -14 -11 -31 -16 -70 -25 -201
-131 -262 -213 -36 -48 -77 -124 -95 -178 -18 -53 -18 -52 -28 -109 -6 -35
-12 -43 -34 -48 -31 -7 -80 -29 -102 -47 -26 -20 -58 -86 -65 -134 -5 -35 -10
-43 -23 -38 -104 40 -188 -14 -216 -139 -11 -50 -12 -51 -48 -48 -60 6 -115
-36 -138 -105 -14 -44 -8 -126 13 -173 9 -19 21 -57 27 -84 22 -90 77 -173
160 -239 34 -27 101 -60 108 -53 3 3 -2 30 -11 60 -10 30 -20 78 -23 108 l-5
53 47 -48 c26 -26 70 -60 98 -75 47 -24 62 -27 157 -27 135 0 196 21 262 88
l46 48 149 -2 c158 -1 212 9 313 61 81 41 250 233 250 283 0 9 15 16 43 20 68
9 86 15 114 37 l26 21 29 -28 29 -28 20 25 c10 14 33 45 51 70 44 64 105 112
137 108 82 -10 104 -199 38 -330 -33 -66 -31 -202 5 -279 28 -60 92 -139 113
-139 7 0 30 24 51 53 36 48 39 50 42 27 9 -69 70 -179 100 -180 7 0 25 20 40
45 30 50 49 57 58 20 8 -31 84 -102 132 -122 46 -19 87 -19 135 1 49 21 111
78 127 116 7 17 16 30 21 30 5 0 24 -20 41 -45 18 -25 37 -45 42 -45 30 0 108
155 98 193 -5 18 19 -6 48 -49 17 -24 37 -44 45 -44 16 0 80 72 102 115 45 86
52 225 15 305 -11 25 -26 73 -33 107 -22 106 19 223 77 223 31 0 104 -67 156
-142 21 -32 43 -58 48 -58 5 0 18 12 29 26 l20 26 28 -20 c37 -25 88 -42 129
-42 26 0 34 -4 34 -17 1 -32 34 -80 110 -163 83 -90 122 -117 226 -155 63 -24
82 -26 222 -25 l153 1 37 -40 c71 -75 169 -107 302 -99 92 6 160 37 226 106
l46 47 -6 -57 c-3 -32 -14 -82 -24 -113 -10 -30 -17 -57 -14 -59 5 -6 92 42
111 61 7 8 24 21 37 29 53 36 131 183 136 260 1 19 4 31 7 28 11 -10 31 62 31
110 0 62 -29 128 -66 152 -25 17 -42 21 -100 23 -17 1 -23 9 -28 44 -20 122
-113 182 -219 141 -10 -4 -16 5 -20 36 -6 48 -40 116 -70 141 -12 10 -44 26
-72 34 l-50 15 -19 77 c-29 124 -90 236 -176 324 -44 46 -158 126 -199 140
-24 9 -32 18 -37 47 -21 125 -67 244 -124 324 -34 48 -150 168 -161 168 -4 0
-14 6 -21 13 -18 17 -115 77 -145 88 -13 5 -22 13 -18 19 13 20 12 153 -1 216
-8 36 -26 92 -41 123 -35 74 -62 88 -134 71 -27 -7 -55 -18 -62 -24 -7 -7 -50
-13 -102 -15 -82 -2 -253 -26 -263 -36 -3 -2 -16 2 -31 9 -14 7 -98 31 -185
52 -123 30 -160 43 -164 57 -5 19 -19 21 -57 7 -22 -8 -30 -6 -51 15 -31 31
-39 31 -58 3 l-16 -22 -23 22 c-28 27 -26 27 -60 -3z m-1146 -1498 c-10 -9
-11 -8 -5 6 3 10 9 15 12 12 3 -3 0 -11 -7 -18z"/>
<path d="M452 2559 c-26 -15 -37 -17 -53 -9 -11 6 -41 10 -67 8 -43 -3 -47 -5
-50 -31 -2 -15 4 -48 14 -73 13 -34 15 -61 11 -119 l-7 -75 55 -25 c31 -14 67
-25 81 -25 24 0 23 -1 -16 -42 -43 -44 -110 -149 -110 -172 0 -6 -6 -18 -12
-24 -9 -9 -13 -55 -13 -155 0 -156 6 -176 65 -235 56 -56 134 -86 236 -90 122
-5 221 25 327 100 l27 20 38 -30 c20 -16 64 -42 97 -57 83 -40 228 -47 327
-17 122 38 188 92 254 207 29 49 29 52 28 205 -1 131 -4 164 -22 210 l-20 55
31 10 c28 9 32 15 35 49 4 51 -14 94 -49 111 -23 12 -46 13 -131 5 -57 -6
-134 -11 -172 -12 -89 -4 -95 -12 -76 -110 l15 -73 72 -3 c91 -4 98 -12 97
-111 -2 -130 -63 -246 -163 -310 -40 -26 -58 -31 -113 -32 -36 -1 -75 2 -86 6
-21 6 -20 8 14 59 19 29 46 83 59 121 22 59 25 85 25 194 0 125 -11 181 -48
248 -37 66 -172 87 -247 37 -22 -15 -45 -33 -51 -40 -9 -11 -13 2 -17 53 -6
58 -11 72 -45 112 -57 68 -89 80 -207 80 -81 0 -106 -4 -133 -20z m139 -167
c22 -19 22 -19 3 -45 -23 -32 -34 -34 -34 -7 0 11 -9 29 -19 39 -14 14 -16 21
-8 25 22 9 35 6 58 -12z m423 -292 c-1 -59 -7 -90 -24 -125 -12 -25 -24 -45
-26 -43 -13 14 -22 136 -12 191 13 77 25 95 47 72 12 -12 16 -35 15 -95z
m-204 -217 c13 -48 12 -54 -5 -73 -10 -11 -26 -20 -35 -20 -9 0 -25 -7 -36
-15 -23 -17 -97 -20 -127 -3 -80 42 -56 138 66 266 40 42 82 90 93 107 l19 29
6 -119 c3 -66 11 -143 19 -172z"/>
<path d="M4002 2567 c-6 -7 -17 -37 -23 -65 l-12 -52 -116 0 c-140 0 -187 -13
-249 -67 -36 -31 -51 -53 -65 -95 -21 -67 -21 -82 -1 -166 23 -96 48 -147 102
-204 59 -63 95 -78 193 -78 79 0 80 0 124 41 25 23 53 58 61 78 34 78 42 98
57 146 9 28 17 61 19 75 3 25 4 25 116 28 131 3 122 16 97 -139 -21 -131 -46
-238 -56 -245 -5 -3 -9 -12 -9 -20 0 -9 -12 -33 -27 -54 l-28 -38 -36 26 c-39
28 -89 92 -89 114 0 23 -22 38 -56 38 -45 0 -114 -82 -121 -143 -8 -73 61
-184 154 -249 40 -27 56 -31 134 -36 l88 -5 35 35 c31 31 35 33 45 15 10 -15
23 -17 79 -15 l67 3 3 363 2 363 90 -3 90 -3 0 -50 c0 -57 17 -87 64 -116 17
-10 25 -19 18 -19 -7 0 -26 -10 -42 -22 l-30 -22 0 -227 c0 -169 3 -229 13
-236 6 -6 52 -13 100 -16 100 -6 129 4 172 55 23 27 26 38 23 97 -3 64 -4 66
-30 69 l-28 3 -2 167 c-1 92 0 203 1 247 2 76 1 82 -27 114 -27 33 -32 35 -94
35 -40 1 -71 -4 -81 -12 -15 -12 -16 -6 -19 70 l-3 83 -282 3 -282 2 -3 68 -3
67 -61 3 c-42 2 -64 -1 -72 -11z m-87 -354 c-4 -10 -12 -31 -18 -48 -14 -43
-29 -77 -45 -102 -13 -21 -16 -21 -42 -8 -31 16 -64 66 -72 109 -9 46 15 61
106 64 73 3 78 2 71 -15z"/>
<path d="M2246 2461 c-15 -10 -37 -32 -47 -47 -18 -27 -19 -54 -19 -420 0
-386 0 -392 22 -419 80 -102 189 -114 300 -32 36 26 60 91 56 148 -3 42 -5 44
-36 47 -20 2 -45 -5 -66 -17 l-33 -21 -11 26 c-7 14 -12 63 -12 109 0 74 2 84
20 90 30 10 87 82 104 133 23 65 21 201 -4 287 -15 53 -28 78 -55 103 -33 30
-39 32 -112 32 -60 0 -85 -5 -107 -19z"/>
<path d="M2815 2449 c-63 -48 -75 -73 -75 -159 0 -71 14 -194 26 -232 4 -13
-2 -19 -23 -23 -97 -21 -149 -97 -160 -233 -9 -127 29 -222 107 -262 54 -27
163 -28 204 -1 l29 20 41 -35 c37 -32 44 -34 114 -34 84 0 121 16 161 71 21
28 24 44 25 115 0 92 -10 114 -55 114 -23 0 -34 -9 -54 -41 -20 -30 -29 -38
-39 -30 -17 14 -67 115 -87 176 l-16 49 38 28 c43 31 58 55 76 118 20 73 14
148 -19 265 -23 82 -90 125 -190 124 -54 0 -69 -5 -103 -30z m165 -227 c12
-46 13 -99 1 -107 -6 -3 -12 16 -16 42 -3 27 -7 63 -10 81 -5 42 11 32 25 -16z
m-139 -476 c5 -6 9 -17 9 -25 0 -11 -6 -9 -23 8 -27 25 -52 119 -41 153 5 17
11 6 26 -52 11 -41 24 -79 29 -84z"/>
<path d="M1880 2299 c-56 -23 -70 -47 -70 -124 0 -65 2 -74 28 -97 15 -14 33
-27 41 -30 8 -2 -3 -14 -28 -31 l-41 -27 0 -230 c0 -126 4 -231 8 -234 4 -2
56 -6 114 -8 95 -3 109 -1 135 18 36 27 55 67 61 126 5 55 -8 78 -44 78 l-24
0 -1 178 c-1 97 0 209 1 247 2 84 -16 115 -78 133 -46 14 -68 14 -102 1z"/>
<path d="M6232 2077 c-28 -33 -42 -90 -42 -168 0 -65 4 -86 20 -109 l21 -29
-23 -13 c-29 -16 -100 -38 -96 -30 54 103 62 179 25 251 -33 64 -71 81 -182
81 -72 0 -98 -4 -130 -21 -54 -28 -95 -67 -111 -106 -13 -29 -19 -33 -54 -33
l-39 0 -3 88 -3 87 -190 3 c-198 3 -229 -2 -273 -42 -42 -37 -54 -76 -59 -193
-8 -159 20 -238 100 -279 24 -13 26 -17 15 -37 -7 -13 -12 -63 -13 -124 0 -97
1 -103 30 -145 44 -63 83 -80 177 -76 67 3 81 7 120 35 23 17 54 51 68 74 23
42 25 54 28 224 4 178 4 180 29 199 30 22 35 17 57 -50 16 -50 52 -92 111
-129 26 -17 50 -20 165 -20 l135 0 65 35 c82 44 119 95 120 163 0 26 5 47 10
47 6 0 10 -20 10 -45 0 -55 24 -121 59 -158 35 -38 90 -50 193 -44 115 7 177
39 224 114 48 73 64 127 64 213 0 81 -9 100 -47 100 -24 0 -63 -49 -63 -80 -1
-25 -66 -107 -99 -123 -23 -12 -32 -12 -40 -3 -6 7 -12 68 -13 137 l-3 124
-131 3 -131 3 -19 42 c-14 32 -25 43 -45 45 -14 2 -31 -3 -37 -11z m-239 -196
c6 -23 -24 -75 -52 -90 -22 -12 -37 4 -41 44 -4 39 0 51 27 67 31 19 57 10 66
-21z m-671 -9 c44 -49 58 -107 31 -133 -17 -18 -19 -18 -51 7 -18 14 -41 46
-53 71 -19 41 -19 46 -4 69 21 33 37 30 77 -14z m56 -450 c-17 -56 -32 -58
-36 -6 -2 29 4 53 20 80 l23 39 3 -35 c1 -19 -3 -54 -10 -78z"/>
</g>
</svg>
